STARTFONT 2.3
FONT -FontForge-Zen Loop-Book-R-Normal--24-240-72-72-P-76-ISO10646-1
SIZE 24 72 72  2
FONTBOUNDINGBOX 21 28 -3 -7
COMMENT "Generated by fontforge, http://fontforge.sourceforge.net"
COMMENT "Copyright 2021 The Zen-Loop Project Authors (https://github.com/googlefonts/zen-loop)"
STARTPROPERTIES 40
FOUNDRY "FontForge"
FAMILY_NAME "Zen Loop"
WEIGHT_NAME "Book"
SLANT "R"
SETWIDTH_NAME "Normal"
ADD_STYLE_NAME ""
PIXEL_SIZE 24
POINT_SIZE 240
RESOLUTION_X 72
RESOLUTION_Y 72
SPACING "P"
AVERAGE_WIDTH 76
CHARSET_REGISTRY "ISO10646"
CHARSET_ENCODING "1"
FONTNAME_REGISTRY ""
CHARSET_COLLECTIONS "ISO10646-1"
BITS_PER_PIXEL 2
FONT_NAME "ZenLoop-Regular"
FACE_NAME "Zen Loop Regular"
COPYRIGHT "Copyright 2021 The Zen-Loop Project Authors (https://github.com/googlefonts/zen-loop)"
FONT_VERSION "1.000; ttfautohint (v1.8.3)"
FONT_ASCENT 19
FONT_DESCENT 5
UNDERLINE_POSITION -3
UNDERLINE_THICKNESS 1
X_HEIGHT 11
CAP_HEIGHT 16
RAW_ASCENT 800
RAW_DESCENT 200
NORM_SPACE 6
RELATIVE_WEIGHT 40
RELATIVE_SETWIDTH 50
SUPERSCRIPT_X 0
SUPERSCRIPT_Y 8
SUPERSCRIPT_SIZE 14
SUBSCRIPT_X 0
SUBSCRIPT_Y 1
SUBSCRIPT_SIZE 14
AVG_LOWERCASE_WIDTH 68
AVG_UPPERCASE_WIDTH 91
ENDPROPERTIES
CHARS 248
STARTCHAR CR
ENCODING 13
SWIDTH 600 0
DWIDTH 14 0
BBX 1 1 0 0
BITMAP
00
ENDCHAR
STARTCHAR space
ENCODING 32
SWIDTH 240 0
DWIDTH 6 0
BBX 1 1 0 0
BITMAP
00
ENDCHAR
STARTCHAR exclam
ENCODING 33
SWIDTH 141 0
DWIDTH 3 0
BBX 1 17 1 0
BITMAP
40
80
80
80
80
80
80
80
80
80
80
80
00
00
40
80
40
ENDCHAR
STARTCHAR quotedbl
ENCODING 34
SWIDTH 195 0
DWIDTH 5 0
BBX 3 5 1 12
BITMAP
44
84
84
84
44
ENDCHAR
STARTCHAR numbersign
ENCODING 35
SWIDTH 454 0
DWIDTH 11 0
BBX 11 17 0 0
BITMAP
004040
008080
008080
004040
014040
1AAAA4
020100
020200
020200
010100
050100
6AAA90
080400
080800
080800
040400
140400
ENDCHAR
STARTCHAR dollar
ENCODING 36
SWIDTH 356 0
DWIDTH 9 0
BBX 8 23 0 -3
BITMAP
0040
0040
0040
06A0
1448
2041
2040
2040
2040
0840
0240
0080
0064
0048
0042
0042
4042
1041
1448
06A0
0040
0040
0040
ENDCHAR
STARTCHAR percent
ENCODING 37
SWIDTH 470 0
DWIDTH 11 0
BBX 10 17 1 0
BITMAP
290000
810200
804100
808400
808800
815400
522000
191000
004000
004A00
012080
021040
055050
085050
041040
102080
101A40
ENDCHAR
STARTCHAR ampersand
ENCODING 38
SWIDTH 520 0
DWIDTH 12 0
BBX 11 17 1 0
BITMAP
01A400
020800
010800
010800
010400
022000
028000
024000
0940A0
208114
505200
802500
801800
800800
801500
506140
2A4064
ENDCHAR
STARTCHAR quotesingle
ENCODING 39
SWIDTH 121 0
DWIDTH 3 0
BBX 1 5 1 12
BITMAP
40
80
80
80
40
ENDCHAR
STARTCHAR parenleft
ENCODING 40
SWIDTH 233 0
DWIDTH 6 0
BBX 4 20 1 -2
BITMAP
01
01
08
04
14
20
20
10
50
50
50
50
10
10
20
10
14
08
05
02
ENDCHAR
STARTCHAR parenright
ENCODING 41
SWIDTH 233 0
DWIDTH 6 0
BBX 3 19 1 -1
BITMAP
40
80
10
20
10
04
08
08
08
08
04
04
08
04
14
20
20
50
80
ENDCHAR
STARTCHAR asterisk
ENCODING 42
SWIDTH 313 0
DWIDTH 8 0
BBX 6 6 1 11
BITMAP
0400
0800
5990
0900
2100
1040
ENDCHAR
STARTCHAR plus
ENCODING 43
SWIDTH 577 0
DWIDTH 14 0
BBX 12 12 1 0
BITMAP
001000
001400
001400
001400
001400
001400
6AAAA9
001400
001400
001400
001400
001000
ENDCHAR
STARTCHAR comma
ENCODING 44
SWIDTH 145 0
DWIDTH 3 0
BBX 2 5 0 -2
BITMAP
10
10
10
20
50
ENDCHAR
STARTCHAR hyphen
ENCODING 45
SWIDTH 286 0
DWIDTH 7 0
BBX 5 1 1 7
BITMAP
6A40
ENDCHAR
STARTCHAR period
ENCODING 46
SWIDTH 181 0
DWIDTH 4 0
BBX 1 3 2 0
BITMAP
40
40
40
ENDCHAR
STARTCHAR slash
ENCODING 47
SWIDTH 292 0
DWIDTH 7 0
BBX 7 21 0 -2
BITMAP
0004
0008
0014
0010
0020
0010
0040
0080
0040
0100
0200
0100
0500
0800
0800
1400
2000
2000
5000
4000
4000
ENDCHAR
STARTCHAR zero
ENCODING 48
SWIDTH 378 0
DWIDTH 9 0
BBX 7 17 1 0
BITMAP
0A80
2020
1014
4008
8008
8008
8004
8004
4004
8004
8004
8008
8008
4008
5014
2020
0A80
ENDCHAR
STARTCHAR one
ENCODING 49
SWIDTH 303 0
DWIDTH 7 0
BBX 6 17 1 0
BITMAP
1800
9800
0800
0800
0800
0800
0800
0800
0800
0800
0800
0800
0800
0800
0800
0800
AA90
ENDCHAR
STARTCHAR two
ENCODING 50
SWIDTH 343 0
DWIDTH 8 0
BBX 8 17 0 0
BITMAP
06A0
1408
1004
0005
0005
0004
0008
0004
0020
0040
0140
0200
0800
1400
2000
5000
6AA9
ENDCHAR
STARTCHAR three
ENCODING 51
SWIDTH 377 0
DWIDTH 9 0
BBX 7 17 1 0
BITMAP
1A80
2020
0014
0014
0014
0020
0A90
21A0
1914
0008
0008
0004
0008
0008
0004
8020
2A80
ENDCHAR
STARTCHAR four
ENCODING 52
SWIDTH 389 0
DWIDTH 9 0
BBX 8 17 1 0
BITMAP
0050
0080
0040
0100
0200
0510
0820
1420
2020
1020
4020
8020
AAA9
0020
0020
0020
0010
ENDCHAR
STARTCHAR five
ENCODING 53
SWIDTH 372 0
DWIDTH 9 0
BBX 7 18 1 0
BITMAP
0008
1A90
1000
1000
1000
1000
1000
2A40
6020
9014
6008
5008
0004
0008
0008
0008
8020
2A80
ENDCHAR
STARTCHAR six
ENCODING 54
SWIDTH 360 0
DWIDTH 9 0
BBX 7 17 1 0
BITMAP
0080
0200
0800
0400
2000
1000
4000
8690
9420
8008
8008
4008
8008
8008
8004
2020
1A80
ENDCHAR
STARTCHAR seven
ENCODING 55
SWIDTH 321 0
DWIDTH 8 0
BBX 6 17 1 0
BITMAP
AAA0
0010
0040
0040
0040
0140
0100
0100
0500
0400
0400
1400
1000
1000
5000
4000
4000
ENDCHAR
STARTCHAR eight
ENCODING 56
SWIDTH 377 0
DWIDTH 9 0
BBX 7 17 1 0
BITMAP
1A90
2010
8008
8008
8008
5014
2020
0980
0640
2420
5014
8008
8004
8008
8008
5014
1A90
ENDCHAR
STARTCHAR nine
ENCODING 57
SWIDTH 360 0
DWIDTH 9 0
BBX 8 17 0 0
BITMAP
06A0
1408
2005
1001
5002
5002
5002
2002
1415
0695
0004
0008
0014
0020
0050
0140
0200
ENDCHAR
STARTCHAR colon
ENCODING 58
SWIDTH 181 0
DWIDTH 4 0
BBX 1 12 2 0
BITMAP
40
40
40
00
00
00
00
00
00
40
40
40
ENDCHAR
STARTCHAR semicolon
ENCODING 59
SWIDTH 165 0
DWIDTH 4 0
BBX 2 14 0 -2
BITMAP
10
10
10
00
00
00
00
00
00
10
10
10
20
50
ENDCHAR
STARTCHAR less
ENCODING 60
SWIDTH 482 0
DWIDTH 12 0
BBX 9 9 1 1
BITMAP
000240
001400
014000
140000
600000
090000
009000
000900
000080
ENDCHAR
STARTCHAR equal
ENCODING 61
SWIDTH 577 0
DWIDTH 14 0
BBX 12 5 1 4
BITMAP
6AAAA9
000000
000000
000000
6AAAA9
ENDCHAR
STARTCHAR greater
ENCODING 62
SWIDTH 482 0
DWIDTH 12 0
BBX 9 10 1 0
BITMAP
500000
190000
019000
001900
000180
000640
006400
064000
640000
400000
ENDCHAR
STARTCHAR question
ENCODING 63
SWIDTH 300 0
DWIDTH 7 0
BBX 5 17 1 0
BITMAP
6A00
8080
0080
0080
0080
0140
0200
0800
0400
2000
2000
1400
0000
0000
0400
0400
0400
ENDCHAR
STARTCHAR at
ENCODING 64
SWIDTH 748 0
DWIDTH 18 0
BBX 16 17 1 0
BITMAP
002AA900
01400190
08006424
20014808
50050801
80080402
80140002
80205001
40106001
80512002
80825005
80414004
50424050
20246A40
08000014
01400090
002AA900
ENDCHAR
STARTCHAR A
ENCODING 65
SWIDTH 414 0
DWIDTH 10 0
BBX 10 17 0 0
BITMAP
005000
009000
005000
005000
010400
010400
010400
050400
040100
0AA900
040100
100140
100040
100040
100040
400050
400010
ENDCHAR
STARTCHAR B
ENCODING 66
SWIDTH 375 0
DWIDTH 9 0
BBX 7 17 1 0
BITMAP
AA80
8020
8014
8004
8008
8008
8A54
8460
86A0
8014
8008
8008
8008
8008
8014
8020
AA80
ENDCHAR
STARTCHAR C
ENCODING 67
SWIDTH 366 0
DWIDTH 9 0
BBX 7 17 1 0
BITMAP
06A4
1404
2000
4000
8000
8000
8000
8000
4000
8000
8000
8000
8000
4000
2000
1404
06A4
ENDCHAR
STARTCHAR D
ENCODING 68
SWIDTH 396 0
DWIDTH 10 0
BBX 8 17 1 0
BITMAP
AA90
8020
8008
8008
8005
8005
8001
8002
8002
8002
8001
8005
8005
8008
8008
8020
AA90
ENDCHAR
STARTCHAR E
ENCODING 69
SWIDTH 309 0
DWIDTH 7 0
BBX 6 17 1 0
BITMAP
AA90
8000
8000
8000
8000
8000
8000
AA80
8000
8000
8000
8000
8000
8000
8000
8000
AA90
ENDCHAR
STARTCHAR F
ENCODING 70
SWIDTH 299 0
DWIDTH 7 0
BBX 6 17 1 0
BITMAP
AA90
8000
8000
8000
8000
8000
8000
AA80
8000
8000
8000
8000
8000
8000
8000
8000
4000
ENDCHAR
STARTCHAR G
ENCODING 71
SWIDTH 382 0
DWIDTH 9 0
BBX 8 17 1 0
BITMAP
06A4
1400
2000
4000
8000
8000
8000
8000
4000
80A8
8005
8005
8005
4005
2005
1404
06A4
ENDCHAR
STARTCHAR H
ENCODING 72
SWIDTH 425 0
DWIDTH 10 0
BBX 8 17 1 0
BITMAP
4001
8002
8002
8002
8002
8002
8002
AAAA
8002
8002
8002
8002
8002
8002
8002
8002
4001
ENDCHAR
STARTCHAR I
ENCODING 73
SWIDTH 141 0
DWIDTH 3 0
BBX 1 17 1 0
BITMAP
40
80
80
80
80
80
80
80
80
80
80
80
80
80
80
80
40
ENDCHAR
STARTCHAR J
ENCODING 74
SWIDTH 142 0
DWIDTH 3 0
BBX 4 22 -2 -5
BITMAP
01
02
02
02
02
02
02
02
02
02
02
02
02
02
02
02
02
01
01
01
05
A4
ENDCHAR
STARTCHAR K
ENCODING 75
SWIDTH 401 0
DWIDTH 10 0
BBX 9 17 0 0
BITMAP
040140
080200
080800
080800
081400
082000
2A9000
896000
690800
080400
080100
080200
080200
080100
080140
080040
040040
ENDCHAR
STARTCHAR L
ENCODING 76
SWIDTH 347 0
DWIDTH 8 0
BBX 7 17 1 0
BITMAP
4000
8000
8000
8000
8000
8000
8000
8000
8000
8000
8000
8000
8000
8000
8000
8000
AAA4
ENDCHAR
STARTCHAR M
ENCODING 77
SWIDTH 534 0
DWIDTH 13 0
BBX 11 17 1 0
BITMAP
200060
2901A0
224520
10A420
102020
108410
508810
509410
406014
402014
405014
805404
806004
801004
800008
800008
400004
ENDCHAR
STARTCHAR N
ENCODING 78
SWIDTH 422 0
DWIDTH 10 0
BBX 8 17 1 0
BITMAP
4001
9002
A002
9402
8802
8402
8102
8202
8142
8082
8042
8022
8022
8016
800A
8006
4002
ENDCHAR
STARTCHAR O
ENCODING 79
SWIDTH 446 0
DWIDTH 11 0
BBX 9 17 1 0
BITMAP
06A400
140800
200200
400100
800140
800080
800080
800080
400080
800080
800080
800080
800140
400100
200200
140900
06A400
ENDCHAR
STARTCHAR P
ENCODING 80
SWIDTH 341 0
DWIDTH 8 0
BBX 7 17 1 0
BITMAP
AA80
8020
8014
8004
8004
8014
8020
8050
AA40
8000
8000
8000
8000
8000
8000
8000
4000
ENDCHAR
STARTCHAR Q
ENCODING 81
SWIDTH 446 0
DWIDTH 11 0
BBX 9 24 1 -7
BITMAP
06A400
140800
200200
400100
800140
800080
800080
800080
400080
800080
800080
A00280
880940
426100
20C200
155900
06A400
021000
018000
008000
019000
015000
019000
004000
ENDCHAR
STARTCHAR R
ENCODING 82
SWIDTH 380 0
DWIDTH 9 0
BBX 9 17 0 0
BITMAP
2AA400
200800
200100
200200
200200
200100
690800
A0A400
2A6000
200800
200800
200500
200200
200200
200100
200140
100040
ENDCHAR
STARTCHAR S
ENCODING 83
SWIDTH 356 0
DWIDTH 9 0
BBX 8 17 0 0
BITMAP
06A4
1408
2000
2000
2000
2000
0800
0600
0080
0020
0008
0001
0002
4002
5002
2005
06A4
ENDCHAR
STARTCHAR T
ENCODING 84
SWIDTH 377 0
DWIDTH 9 0
BBX 9 17 0 0
BITMAP
6AAA40
008000
008000
008000
008000
008000
008000
008000
008000
008000
008000
008000
008000
008000
008000
008000
004000
ENDCHAR
STARTCHAR U
ENCODING 85
SWIDTH 412 0
DWIDTH 10 0
BBX 8 17 1 0
BITMAP
4001
8002
8002
8002
8002
8002
8002
8002
8002
8002
8002
8002
8002
4001
4001
2008
1AA4
ENDCHAR
STARTCHAR V
ENCODING 86
SWIDTH 384 0
DWIDTH 9 0
BBX 9 17 0 0
BITMAP
400040
500040
100140
100100
100100
100100
040100
040400
040400
040400
050400
011000
011000
011000
015000
008000
008000
ENDCHAR
STARTCHAR W
ENCODING 87
SWIDTH 534 0
DWIDTH 13 0
BBX 11 17 1 0
BITMAP
400004
400004
400004
800004
800004
806004
404414
404414
405414
506010
502010
106010
108410
114510
120210
280090
200060
ENDCHAR
STARTCHAR X
ENCODING 88
SWIDTH 318 0
DWIDTH 8 0
BBX 8 17 0 0
BITMAP
1004
2004
1010
0420
0810
0440
0180
0240
0240
0180
0440
0810
1420
1014
2008
5008
4005
ENDCHAR
STARTCHAR Y
ENCODING 89
SWIDTH 370 0
DWIDTH 9 0
BBX 9 17 0 0
BITMAP
400040
500100
200200
140500
080800
041400
012000
021000
018000
008000
008000
008000
008000
008000
008000
008000
004000
ENDCHAR
STARTCHAR Z
ENCODING 90
SWIDTH 309 0
DWIDTH 7 0
BBX 7 17 0 0
BITMAP
2AA8
0004
0010
0020
0050
0040
0040
0140
0200
0100
0400
0800
0400
1000
2000
5000
AAA4
ENDCHAR
STARTCHAR bracketleft
ENCODING 91
SWIDTH 193 0
DWIDTH 5 0
BBX 4 21 1 -2
BITMAP
69
80
80
80
80
80
80
80
80
80
80
80
80
80
80
80
80
80
80
80
69
ENDCHAR
STARTCHAR backslash
ENCODING 92
SWIDTH 292 0
DWIDTH 7 0
BBX 7 21 0 -2
BITMAP
4000
8000
5000
1000
2000
1000
0400
0800
0400
0100
0200
0100
0140
0080
0080
0050
0020
0020
0014
0004
0004
ENDCHAR
STARTCHAR bracketright
ENCODING 93
SWIDTH 193 0
DWIDTH 5 0
BBX 4 21 0 -2
BITMAP
68
05
05
05
05
05
05
05
05
05
05
05
05
05
05
05
05
05
05
05
68
ENDCHAR
STARTCHAR asciicircum
ENCODING 94
SWIDTH 416 0
DWIDTH 10 0
BBX 10 10 0 8
BITMAP
005000
00A000
015400
020800
010400
080200
040100
100040
200080
400010
ENDCHAR
STARTCHAR underscore
ENCODING 95
SWIDTH 556 0
DWIDTH 13 0
BBX 11 1 1 -1
BITMAP
6AAAA8
ENDCHAR
STARTCHAR grave
ENCODING 96
SWIDTH 201 0
DWIDTH 5 0
BBX 3 3 1 13
BITMAP
40
20
14
ENDCHAR
STARTCHAR a
ENCODING 97
SWIDTH 315 0
DWIDTH 8 0
BBX 7 12 0 0
BITMAP
0A80
2010
0010
0020
0020
0060
0520
2020
1020
5020
1060
1A68
ENDCHAR
STARTCHAR b
ENCODING 98
SWIDTH 298 0
DWIDTH 7 0
BBX 5 18 1 0
BITMAP
4000
8000
8000
8000
8000
8000
9A00
9040
8080
8080
8040
8040
8040
8040
8080
8080
9040
5A00
ENDCHAR
STARTCHAR c
ENCODING 99
SWIDTH 275 0
DWIDTH 7 0
BBX 5 12 1 0
BITMAP
1A00
5080
8040
8000
8000
8000
8000
8000
8000
8040
5040
1A00
ENDCHAR
STARTCHAR d
ENCODING 100
SWIDTH 298 0
DWIDTH 7 0
BBX 5 18 1 0
BITMAP
0040
0040
0040
0040
0040
0040
1A80
5080
8080
8040
8040
8040
8040
8040
8040
8040
5080
1A40
ENDCHAR
STARTCHAR e
ENCODING 101
SWIDTH 285 0
DWIDTH 7 0
BBX 5 12 1 0
BITMAP
1A00
5040
4080
4040
AA80
4000
8000
8000
8000
8040
1080
1A00
ENDCHAR
STARTCHAR f
ENCODING 102
SWIDTH 178 0
DWIDTH 4 0
BBX 6 18 0 0
BITMAP
0190
0800
0400
0400
1400
1400
6A00
1400
1400
1400
1400
1400
1400
1400
1400
1400
1400
1400
ENDCHAR
STARTCHAR g
ENCODING 103
SWIDTH 302 0
DWIDTH 7 0
BBX 8 18 0 -5
BITMAP
0020
0690
1410
2020
2010
2010
2010
2020
0450
0A40
2000
2400
0690
5018
8005
4005
8008
1AA0
ENDCHAR
STARTCHAR h
ENCODING 104
SWIDTH 307 0
DWIDTH 7 0
BBX 6 18 1 0
BITMAP
4000
8000
8000
8000
8000
8000
9A40
9080
8040
8050
8050
8050
8050
8050
8050
8050
8050
4040
ENDCHAR
STARTCHAR i
ENCODING 105
SWIDTH 141 0
DWIDTH 3 0
BBX 1 16 1 0
BITMAP
40
80
40
00
40
80
80
80
80
80
80
80
80
80
80
40
ENDCHAR
STARTCHAR j
ENCODING 106
SWIDTH 141 0
DWIDTH 3 0
BBX 4 21 -2 -5
BITMAP
01
02
01
00
01
02
02
02
02
02
02
02
02
02
02
02
02
01
02
05
64
ENDCHAR
STARTCHAR k
ENCODING 107
SWIDTH 287 0
DWIDTH 7 0
BBX 6 18 1 0
BITMAP
4000
8000
8000
8000
8000
8000
8040
8140
8200
8800
9800
9500
8200
8100
8140
8080
8040
4050
ENDCHAR
STARTCHAR l
ENCODING 108
SWIDTH 141 0
DWIDTH 3 0
BBX 1 18 1 0
BITMAP
40
80
80
80
80
80
80
80
80
80
80
80
80
80
80
80
80
40
ENDCHAR
STARTCHAR m
ENCODING 109
SWIDTH 407 0
DWIDTH 10 0
BBX 8 12 1 0
BITMAP
6005
9826
8282
8142
8282
8142
8182
8142
8002
8002
8002
4001
ENDCHAR
STARTCHAR n
ENCODING 110
SWIDTH 307 0
DWIDTH 7 0
BBX 6 12 1 0
BITMAP
5A40
9080
8040
8050
8050
8050
8050
8050
8050
8050
8050
4040
ENDCHAR
STARTCHAR o
ENCODING 111
SWIDTH 309 0
DWIDTH 7 0
BBX 6 12 1 0
BITMAP
1A00
5040
8040
8050
8010
8010
8010
8010
8050
8040
5040
1A00
ENDCHAR
STARTCHAR p
ENCODING 112
SWIDTH 299 0
DWIDTH 7 0
BBX 7 18 0 -5
BITMAP
1000
2A80
6010
2020
2010
2010
2014
2014
2010
2010
2020
2410
2680
2000
2000
2000
2000
1000
ENDCHAR
STARTCHAR q
ENCODING 113
SWIDTH 286 0
DWIDTH 7 0
BBX 6 17 1 -5
BITMAP
1A40
5080
8080
8080
8080
8080
8080
8080
8080
8080
5080
2A80
0080
0080
0080
0080
0060
ENDCHAR
STARTCHAR r
ENCODING 114
SWIDTH 277 0
DWIDTH 7 0
BBX 5 12 1 0
BITMAP
5A40
9080
8040
8000
8000
8000
8000
8000
8000
8000
8000
4000
ENDCHAR
STARTCHAR s
ENCODING 115
SWIDTH 257 0
DWIDTH 6 0
BBX 6 12 0 0
BITMAP
1A40
2040
2000
2000
1400
0900
0140
0080
0010
4010
1050
1A40
ENDCHAR
STARTCHAR t
ENCODING 116
SWIDTH 207 0
DWIDTH 5 0
BBX 4 15 0 0
BITMAP
04
08
08
6A
08
08
08
08
08
08
08
08
08
08
06
ENDCHAR
STARTCHAR u
ENCODING 117
SWIDTH 307 0
DWIDTH 7 0
BBX 5 12 1 0
BITMAP
4040
8080
8080
8080
8080
8080
8080
8080
8080
4080
8080
2940
ENDCHAR
STARTCHAR v
ENCODING 118
SWIDTH 285 0
DWIDTH 7 0
BBX 7 12 0 0
BITMAP
4014
5010
1020
2020
1010
1440
0440
0840
0840
0540
0200
0200
ENDCHAR
STARTCHAR w
ENCODING 119
SWIDTH 396 0
DWIDTH 10 0
BBX 9 12 0 0
BITMAP
500040
500080
100080
109040
206040
205040
209140
209140
209100
221100
150A00
140200
ENDCHAR
STARTCHAR x
ENCODING 120
SWIDTH 244 0
DWIDTH 6 0
BBX 6 12 0 0
BITMAP
1040
2080
1140
0600
0A00
0500
0900
0A00
1540
2080
1080
4050
ENDCHAR
STARTCHAR y
ENCODING 121
SWIDTH 285 0
DWIDTH 7 0
BBX 7 17 0 -5
BITMAP
4014
5010
1020
2010
1010
1440
0440
0840
0840
0540
0600
0200
0100
0100
0400
0800
6400
ENDCHAR
STARTCHAR z
ENCODING 122
SWIDTH 233 0
DWIDTH 6 0
BBX 5 12 0 0
BITMAP
2A80
0080
0140
0100
0100
0500
0800
0400
1000
2000
1000
6A80
ENDCHAR
STARTCHAR braceleft
ENCODING 123
SWIDTH 306 0
DWIDTH 7 0
BBX 7 21 0 -2
BITMAP
0068
0080
0080
0080
0080
0080
0080
0080
0080
2940
4300
2940
0080
0080
0080
0080
0080
0080
0080
0080
0068
ENDCHAR
STARTCHAR bar
ENCODING 124
SWIDTH 141 0
DWIDTH 3 0
BBX 1 21 1 -2
BITMAP
40
80
80
80
80
80
80
80
80
80
80
80
80
80
80
80
80
80
80
80
40
ENDCHAR
STARTCHAR braceright
ENCODING 125
SWIDTH 306 0
DWIDTH 7 0
BBX 7 21 0 -2
BITMAP
6400
0400
0500
0500
0500
0500
0500
0500
0500
02A4
0248
02A4
0500
0500
0500
0500
0500
0500
0500
0400
6400
ENDCHAR
STARTCHAR asciitilde
ENCODING 126
SWIDTH 433 0
DWIDTH 10 0
BBX 9 2 1 6
BITMAP
694140
406900
ENDCHAR
STARTCHAR uni00A0
ENCODING 160
SWIDTH 240 0
DWIDTH 6 0
BBX 1 1 0 0
BITMAP
00
ENDCHAR
STARTCHAR exclamdown
ENCODING 161
SWIDTH 141 0
DWIDTH 3 0
BBX 1 17 1 -4
BITMAP
40
80
40
00
00
80
80
80
80
80
80
80
80
80
80
80
40
ENDCHAR
STARTCHAR cent
ENCODING 162
SWIDTH 275 0
DWIDTH 7 0
BBX 5 17 1 -2
BITMAP
0400
0800
0800
1A00
2940
8840
8800
8800
8800
8800
8800
8840
5880
2A40
0800
0800
0400
ENDCHAR
STARTCHAR sterling
ENCODING 163
SWIDTH 331 0
DWIDTH 8 0
BBX 8 17 0 0
BITMAP
0AA0
2008
5004
5000
5000
2000
1400
0800
2AA0
0200
0200
0200
0100
0400
0800
2000
6AA9
ENDCHAR
STARTCHAR currency
ENCODING 164
SWIDTH 506 0
DWIDTH 12 0
BBX 10 11 1 2
BITMAP
400010
26A980
080240
100080
200080
200040
200080
140080
190240
61A450
400010
ENDCHAR
STARTCHAR yen
ENCODING 165
SWIDTH 370 0
DWIDTH 9 0
BBX 9 17 0 0
BITMAP
400040
500100
200200
140500
080800
041400
022000
015000
008000
008000
1AA900
008000
008000
1AA900
008000
008000
004000
ENDCHAR
STARTCHAR brokenbar
ENCODING 166
SWIDTH 141 0
DWIDTH 3 0
BBX 1 21 1 -2
BITMAP
40
80
80
80
80
80
80
80
40
00
00
00
40
80
80
80
80
80
80
80
40
ENDCHAR
STARTCHAR section
ENCODING 167
SWIDTH 303 0
DWIDTH 7 0
BBX 7 22 0 -2
BITMAP
0680
2020
1004
5000
5000
2000
0800
0240
0FD0
2EB0
3024
2014
1010
0000
0000
0090
0020
0004
0008
4004
2020
0A80
ENDCHAR
STARTCHAR dieresis
ENCODING 168
SWIDTH 241 0
DWIDTH 6 0
BBX 4 3 1 13
BITMAP
41
81
41
ENDCHAR
STARTCHAR copyright
ENCODING 169
SWIDTH 772 0
DWIDTH 19 0
BBX 17 18 1 0
BITMAP
001AA40000
0190014000
0500002000
1401900800
2004000500
5008000200
8014000140
8014000040
8010000080
8010000080
8014000040
8014000140
5008000200
2004000500
1401900800
0500002000
0190014000
001AA40000
ENDCHAR
STARTCHAR ordfeminine
ENCODING 170
SWIDTH 231 0
DWIDTH 6 0
BBX 5 8 0 9
BITMAP
1900
1100
0100
0200
1500
5100
4200
2A40
ENDCHAR
STARTCHAR guillemotleft
ENCODING 171
SWIDTH 403 0
DWIDTH 10 0
BBX 8 10 1 2
BITMAP
0101
0208
0810
2050
8140
8140
2080
1420
0508
0101
ENDCHAR
STARTCHAR logicalnot
ENCODING 172
SWIDTH 557 0
DWIDTH 13 0
BBX 12 4 1 4
BITMAP
AAAAA9
000001
000001
000001
ENDCHAR
STARTCHAR uni00AD
ENCODING 173
SWIDTH 286 0
DWIDTH 7 0
BBX 5 1 1 7
BITMAP
6A40
ENDCHAR
STARTCHAR registered
ENCODING 174
SWIDTH 772 0
DWIDTH 19 0
BBX 17 18 1 0
BITMAP
001AA40000
0190014000
0500002000
1400000800
2006900500
5008200200
8008140140
8008100040
8008200080
800A900080
8008200040
8008140140
5008040200
2008080500
1404040800
0500002000
0190014000
001AA40000
ENDCHAR
STARTCHAR macron
ENCODING 175
SWIDTH 266 0
DWIDTH 6 0
BBX 4 1 1 14
BITMAP
69
ENDCHAR
STARTCHAR degree
ENCODING 176
SWIDTH 350 0
DWIDTH 8 0
BBX 7 7 1 11
BITMAP
1A40
6060
8020
8014
8020
6050
1A40
ENDCHAR
STARTCHAR plusminus
ENCODING 177
SWIDTH 577 0
DWIDTH 14 0
BBX 12 12 1 0
BITMAP
001000
001400
001400
001400
6AAAA9
001400
001400
001400
001400
001000
000000
6AAAA9
ENDCHAR
STARTCHAR uni00B2
ENCODING 178
SWIDTH 207 0
DWIDTH 5 0
BBX 4 8 0 9
BITMAP
19
11
01
02
04
14
20
6A
ENDCHAR
STARTCHAR uni00B3
ENCODING 179
SWIDTH 214 0
DWIDTH 5 0
BBX 3 8 1 9
BITMAP
64
44
08
24
08
04
04
A4
ENDCHAR
STARTCHAR acute
ENCODING 180
SWIDTH 201 0
DWIDTH 5 0
BBX 3 3 1 13
BITMAP
14
20
50
ENDCHAR
STARTCHAR uni00B5
ENCODING 181
SWIDTH 335 0
DWIDTH 8 0
BBX 7 17 1 -5
BITMAP
4040
8050
8050
8050
8050
8050
8050
8050
8050
8050
8090
AA64
8000
8000
8000
8000
4000
ENDCHAR
STARTCHAR paragraph
ENCODING 182
SWIDTH 471 0
DWIDTH 11 0
BBX 9 17 1 0
BITMAP
0BF440
2FF480
7FF480
7FF480
BFF480
7FF480
3FF480
1FF480
06A480
000480
000480
000480
000480
000480
000480
000480
000440
ENDCHAR
STARTCHAR periodcentered
ENCODING 183
SWIDTH 181 0
DWIDTH 4 0
BBX 1 3 2 6
BITMAP
40
40
40
ENDCHAR
STARTCHAR cedilla
ENCODING 184
SWIDTH 232 0
DWIDTH 6 0
BBX 2 5 2 -4
BITMAP
40
90
10
10
90
ENDCHAR
STARTCHAR uni00B9
ENCODING 185
SWIDTH 176 0
DWIDTH 4 0
BBX 3 8 1 9
BITMAP
90
20
20
20
20
20
20
A4
ENDCHAR
STARTCHAR ordmasculine
ENCODING 186
SWIDTH 201 0
DWIDTH 5 0
BBX 5 8 0 9
BITMAP
1900
1200
5100
4140
4140
5100
1200
1900
ENDCHAR
STARTCHAR guillemotright
ENCODING 187
SWIDTH 403 0
DWIDTH 10 0
BBX 8 10 1 2
BITMAP
8100
2080
1420
0508
0205
0205
0814
1420
5080
4100
ENDCHAR
STARTCHAR onequarter
ENCODING 188
SWIDTH 527 0
DWIDTH 13 0
BBX 11 17 1 0
BITMAP
600010
100050
100080
100140
100200
100500
100800
690400
002000
001040
008040
004100
010250
010550
040AA4
040050
100050
ENDCHAR
STARTCHAR onehalf
ENCODING 189
SWIDTH 540 0
DWIDTH 13 0
BBX 11 17 1 0
BITMAP
600010
100050
100080
100140
100200
100500
100800
690400
002000
0010A4
008108
004004
010014
010020
040080
040140
1002A4
ENDCHAR
STARTCHAR threequarters
ENCODING 190
SWIDTH 517 0
DWIDTH 12 0
BBX 11 17 1 0
BITMAP
640010
440050
080080
240140
080200
040500
040800
A40400
002000
001040
008080
004140
010210
010110
0406A4
040010
100010
ENDCHAR
STARTCHAR questiondown
ENCODING 191
SWIDTH 300 0
DWIDTH 7 0
BBX 6 17 1 -4
BITMAP
0500
0500
0000
0000
0000
0100
0200
0200
0500
0800
1000
2000
4000
8000
8000
5050
2A40
ENDCHAR
STARTCHAR Agrave
ENCODING 192
SWIDTH 414 0
DWIDTH 10 0
BBX 10 21 0 0
BITMAP
014000
008000
000000
000000
005000
009000
005000
005000
010400
010400
010400
050400
040100
0AA900
040100
100140
100040
100040
100040
400050
400010
ENDCHAR
STARTCHAR Aacute
ENCODING 193
SWIDTH 414 0
DWIDTH 10 0
BBX 10 21 0 0
BITMAP
000400
002000
000000
000000
005000
009000
005000
005000
010400
010400
010400
050400
040100
0AA900
040100
100140
100040
100040
100040
400050
400010
ENDCHAR
STARTCHAR Acircumflex
ENCODING 194
SWIDTH 414 0
DWIDTH 10 0
BBX 10 20 0 0
BITMAP
005000
015400
010400
005000
009000
005000
005000
010400
010400
010400
050400
040100
0AA900
040100
100140
100040
100040
100040
400050
400010
ENDCHAR
STARTCHAR Atilde
ENCODING 195
SWIDTH 414 0
DWIDTH 10 0
BBX 10 21 0 0
BITMAP
018400
012400
000000
000000
005000
009000
005000
005000
010400
010400
010400
050400
040100
0AA900
040100
100140
100040
100040
100040
400050
400010
ENDCHAR
STARTCHAR Adieresis
ENCODING 196
SWIDTH 414 0
DWIDTH 10 0
BBX 10 20 0 0
BITMAP
011400
011400
000000
005000
009000
005000
005000
010400
010400
010400
050400
040100
0AA900
040100
100140
100040
100040
100040
400050
400010
ENDCHAR
STARTCHAR Aring
ENCODING 197
SWIDTH 414 0
DWIDTH 10 0
BBX 10 21 0 0
BITMAP
009000
015400
009000
000000
005000
009000
005000
005000
010400
010400
010400
050400
040100
0AA900
040100
100140
100040
100040
100040
400050
400010
ENDCHAR
STARTCHAR AE
ENCODING 198
SWIDTH 545 0
DWIDTH 13 0
BBX 12 17 0 0
BITMAP
0002AA
000600
000600
001600
001200
001200
004200
0042A9
010200
01AA00
010200
040200
040200
100200
100200
100200
4002AA
ENDCHAR
STARTCHAR Ccedilla
ENCODING 199
SWIDTH 366 0
DWIDTH 9 0
BBX 7 21 1 -4
BITMAP
06A4
1404
2000
4000
8000
8000
8000
8000
4000
8000
8000
8000
8000
4000
2000
1404
06E4
0190
0020
0020
0180
ENDCHAR
STARTCHAR Egrave
ENCODING 200
SWIDTH 309 0
DWIDTH 7 0
BBX 6 21 1 0
BITMAP
1400
0800
0000
0000
AA90
8000
8000
8000
8000
8000
8000
AA80
8000
8000
8000
8000
8000
8000
8000
8000
AA90
ENDCHAR
STARTCHAR Eacute
ENCODING 201
SWIDTH 309 0
DWIDTH 7 0
BBX 6 21 1 0
BITMAP
0040
0200
0000
0000
AA90
8000
8000
8000
8000
8000
8000
AA80
8000
8000
8000
8000
8000
8000
8000
8000
AA90
ENDCHAR
STARTCHAR Ecircumflex
ENCODING 202
SWIDTH 309 0
DWIDTH 7 0
BBX 6 20 1 0
BITMAP
0500
1540
1040
AA90
8000
8000
8000
8000
8000
8000
AA80
8000
8000
8000
8000
8000
8000
8000
8000
AA90
ENDCHAR
STARTCHAR Edieresis
ENCODING 203
SWIDTH 309 0
DWIDTH 7 0
BBX 6 20 1 0
BITMAP
1140
1140
0000
AA90
8000
8000
8000
8000
8000
8000
AA80
8000
8000
8000
8000
8000
8000
8000
8000
AA90
ENDCHAR
STARTCHAR Igrave
ENCODING 204
SWIDTH 141 0
DWIDTH 3 0
BBX 2 21 0 0
BITMAP
40
10
10
00
10
20
20
20
20
20
20
20
20
20
20
20
20
20
20
20
10
ENDCHAR
STARTCHAR Iacute
ENCODING 205
SWIDTH 141 0
DWIDTH 3 0
BBX 3 21 1 0
BITMAP
14
20
00
00
40
80
80
80
80
80
80
80
80
80
80
80
80
80
80
80
40
ENDCHAR
STARTCHAR Icircumflex
ENCODING 206
SWIDTH 141 0
DWIDTH 3 0
BBX 3 20 0 0
BITMAP
24
58
40
10
20
20
20
20
20
20
20
20
20
20
20
20
20
20
20
10
ENDCHAR
STARTCHAR Idieresis
ENCODING 207
SWIDTH 141 0
DWIDTH 3 0
BBX 3 21 0 0
BITMAP
44
84
44
00
10
20
20
20
20
20
20
20
20
20
20
20
20
20
20
20
10
ENDCHAR
STARTCHAR Eth
ENCODING 208
SWIDTH 396 0
DWIDTH 10 0
BBX 9 17 0 0
BITMAP
2AA400
200800
200200
200200
200140
200140
200040
200080
6A4080
200080
200040
200140
200140
200200
200200
200800
2AA400
ENDCHAR
STARTCHAR Ntilde
ENCODING 209
SWIDTH 422 0
DWIDTH 10 0
BBX 8 21 1 0
BITMAP
0610
0490
0000
0000
4001
9002
A002
9402
8802
8402
8102
8202
8142
8082
8042
8022
8022
8016
800A
8006
4002
ENDCHAR
STARTCHAR Ograve
ENCODING 210
SWIDTH 446 0
DWIDTH 11 0
BBX 9 21 1 0
BITMAP
010000
014000
004000
000000
06A400
140800
200200
400100
800140
800080
800080
800080
400080
800080
800080
800080
800140
400100
200200
140900
06A400
ENDCHAR
STARTCHAR Oacute
ENCODING 211
SWIDTH 446 0
DWIDTH 11 0
BBX 9 21 1 0
BITMAP
002000
005000
004000
000000
06A400
140800
200200
400100
800140
800080
800080
800080
400080
800080
800080
800080
800140
400100
200200
140900
06A400
ENDCHAR
STARTCHAR Ocircumflex
ENCODING 212
SWIDTH 446 0
DWIDTH 11 0
BBX 9 20 1 0
BITMAP
008000
021000
001000
06A400
140800
200200
400100
800140
800080
800080
800080
400080
800080
800080
800080
800140
400100
200200
140900
06A400
ENDCHAR
STARTCHAR Otilde
ENCODING 213
SWIDTH 446 0
DWIDTH 11 0
BBX 9 21 1 0
BITMAP
064400
046000
000000
000000
06A400
140800
200200
400100
800140
800080
800080
800080
400080
800080
800080
800080
800140
400100
200200
140900
06A400
ENDCHAR
STARTCHAR Odieresis
ENCODING 214
SWIDTH 446 0
DWIDTH 11 0
BBX 9 21 1 0
BITMAP
011000
022000
011000
000000
06A400
140800
200200
400100
800140
800080
800080
800080
400080
800080
800080
800080
800140
400100
200200
140900
06A400
ENDCHAR
STARTCHAR multiply
ENCODING 215
SWIDTH 445 0
DWIDTH 11 0
BBX 9 9 1 2
BITMAP
000040
800200
200800
082000
028000
028000
082000
200800
400200
ENDCHAR
STARTCHAR Oslash
ENCODING 216
SWIDTH 446 0
DWIDTH 11 0
BBX 9 17 1 0
BITMAP
06A100
140A00
200600
400A00
800540
801080
801080
804080
408080
814080
820080
850080
880140
540100
200200
240900
46A400
ENDCHAR
STARTCHAR Ugrave
ENCODING 217
SWIDTH 412 0
DWIDTH 10 0
BBX 8 21 1 0
BITMAP
0400
0200
0000
0000
4001
8002
8002
8002
8002
8002
8002
8002
8002
8002
8002
8002
8002
4001
4001
2008
1AA4
ENDCHAR
STARTCHAR Uacute
ENCODING 218
SWIDTH 412 0
DWIDTH 10 0
BBX 8 21 1 0
BITMAP
0010
0080
0000
0000
4001
8002
8002
8002
8002
8002
8002
8002
8002
8002
8002
8002
8002
4001
4001
2008
1AA4
ENDCHAR
STARTCHAR Ucircumflex
ENCODING 219
SWIDTH 412 0
DWIDTH 10 0
BBX 8 20 1 0
BITMAP
0140
0550
0410
4001
8002
8002
8002
8002
8002
8002
8002
8002
8002
8002
8002
8002
4001
4001
2008
1AA4
ENDCHAR
STARTCHAR Udieresis
ENCODING 220
SWIDTH 412 0
DWIDTH 10 0
BBX 8 20 1 0
BITMAP
0450
0450
0000
4001
8002
8002
8002
8002
8002
8002
8002
8002
8002
8002
8002
8002
4001
4001
2008
1AA4
ENDCHAR
STARTCHAR Yacute
ENCODING 221
SWIDTH 370 0
DWIDTH 9 0
BBX 9 21 0 0
BITMAP
002000
005000
004000
000000
400040
500100
200200
140500
080800
041400
012000
021000
018000
008000
008000
008000
008000
008000
008000
008000
004000
ENDCHAR
STARTCHAR Thorn
ENCODING 222
SWIDTH 341 0
DWIDTH 8 0
BBX 7 17 1 0
BITMAP
4000
8000
8000
AA40
8020
8010
8004
8004
8014
8020
8050
AA40
8000
8000
8000
8000
4000
ENDCHAR
STARTCHAR germandbls
ENCODING 223
SWIDTH 327 0
DWIDTH 8 0
BBX 6 17 1 0
BITMAP
1A00
5080
4080
8040
8040
8080
8A80
9580
8940
8010
8020
8020
8020
8010
8050
8080
5A00
ENDCHAR
STARTCHAR agrave
ENCODING 224
SWIDTH 315 0
DWIDTH 8 0
BBX 7 16 0 0
BITMAP
0400
0500
0100
0000
0A80
2010
0010
0020
0020
0060
0520
2020
1020
5020
1060
1A68
ENDCHAR
STARTCHAR aacute
ENCODING 225
SWIDTH 315 0
DWIDTH 8 0
BBX 7 16 0 0
BITMAP
0040
0080
0100
0000
0A80
2010
0010
0020
0020
0060
0520
2020
1020
5020
1060
1A68
ENDCHAR
STARTCHAR acircumflex
ENCODING 226
SWIDTH 315 0
DWIDTH 8 0
BBX 7 16 0 0
BITMAP
0240
0580
0410
0000
0A80
2010
0010
0020
0020
0060
0520
2020
1020
5020
1060
1A68
ENDCHAR
STARTCHAR atilde
ENCODING 227
SWIDTH 315 0
DWIDTH 8 0
BBX 7 16 0 0
BITMAP
0910
1190
0000
0000
0A80
2010
0010
0020
0020
0060
0520
2020
1020
5020
1060
1A68
ENDCHAR
STARTCHAR adieresis
ENCODING 228
SWIDTH 315 0
DWIDTH 8 0
BBX 7 16 0 0
BITMAP
0440
0840
0440
0000
0A80
2010
0010
0020
0020
0060
0520
2020
1020
5020
1060
1A68
ENDCHAR
STARTCHAR aring
ENCODING 229
SWIDTH 315 0
DWIDTH 8 0
BBX 7 17 0 0
BITMAP
0240
0840
0840
0240
0000
0A80
2010
0010
0020
0020
0060
0520
2020
1020
5020
1060
1A68
ENDCHAR
STARTCHAR ae
ENCODING 230
SWIDTH 450 0
DWIDTH 11 0
BBX 10 12 0 0
BITMAP
0A8680
201410
002420
002020
002010
01AAA0
192000
202000
502000
502010
106420
1A4680
ENDCHAR
STARTCHAR ccedilla
ENCODING 231
SWIDTH 275 0
DWIDTH 7 0
BBX 5 16 1 -4
BITMAP
1A00
5080
8040
8000
8000
8000
8000
8000
8000
8040
5040
1E00
0900
0200
0200
1900
ENDCHAR
STARTCHAR egrave
ENCODING 232
SWIDTH 285 0
DWIDTH 7 0
BBX 5 16 1 0
BITMAP
1000
1400
0800
0000
1A00
5040
4080
4040
AA80
4000
8000
8000
8000
8040
1080
1A00
ENDCHAR
STARTCHAR eacute
ENCODING 233
SWIDTH 285 0
DWIDTH 7 0
BBX 5 16 1 0
BITMAP
0100
0200
0400
0000
1A00
5040
4080
4040
AA80
4000
8000
8000
8000
8040
1080
1A00
ENDCHAR
STARTCHAR ecircumflex
ENCODING 234
SWIDTH 285 0
DWIDTH 7 0
BBX 5 16 1 0
BITMAP
0900
1600
1040
0000
1A00
5040
4080
4040
AA80
4000
8000
8000
8000
8040
1080
1A00
ENDCHAR
STARTCHAR edieresis
ENCODING 235
SWIDTH 285 0
DWIDTH 7 0
BBX 5 16 1 0
BITMAP
1100
2100
1100
0000
1A00
5040
4080
4040
AA80
4000
8000
8000
8000
8040
1080
1A00
ENDCHAR
STARTCHAR igrave
ENCODING 236
SWIDTH 141 0
DWIDTH 3 0
BBX 2 16 0 0
BITMAP
40
50
10
00
10
20
20
20
20
20
20
20
20
20
20
10
ENDCHAR
STARTCHAR iacute
ENCODING 237
SWIDTH 141 0
DWIDTH 3 0
BBX 2 16 1 0
BITMAP
10
20
40
00
40
80
80
80
80
80
80
80
80
80
80
40
ENDCHAR
STARTCHAR icircumflex
ENCODING 238
SWIDTH 141 0
DWIDTH 3 0
BBX 4 16 0 0
BITMAP
24
58
41
00
10
20
20
20
20
20
20
20
20
20
20
10
ENDCHAR
STARTCHAR idieresis
ENCODING 239
SWIDTH 141 0
DWIDTH 3 0
BBX 3 16 0 0
BITMAP
44
84
44
00
10
20
20
20
20
20
20
20
20
20
20
10
ENDCHAR
STARTCHAR eth
ENCODING 240
SWIDTH 319 0
DWIDTH 8 0
BBX 6 18 1 0
BITMAP
1000
1400
0580
1A00
0140
0080
1A80
1090
8010
8020
8020
8020
8020
8020
8010
8040
1080
1A00
ENDCHAR
STARTCHAR ntilde
ENCODING 241
SWIDTH 307 0
DWIDTH 7 0
BBX 6 16 1 0
BITMAP
2440
4640
0000
0000
5A40
9080
8040
8050
8050
8050
8050
8050
8050
8050
8050
4040
ENDCHAR
STARTCHAR ograve
ENCODING 242
SWIDTH 309 0
DWIDTH 7 0
BBX 6 16 1 0
BITMAP
1000
1400
0400
0000
1A00
5040
8040
8050
8010
8010
8010
8010
8050
8040
5040
1A00
ENDCHAR
STARTCHAR oacute
ENCODING 243
SWIDTH 309 0
DWIDTH 7 0
BBX 6 16 1 0
BITMAP
0100
0200
0400
0000
1A00
5040
8040
8050
8010
8010
8010
8010
8050
8040
5040
1A00
ENDCHAR
STARTCHAR ocircumflex
ENCODING 244
SWIDTH 309 0
DWIDTH 7 0
BBX 6 16 1 0
BITMAP
0900
1600
1040
0000
1A00
5040
8040
8050
8010
8010
8010
8010
8050
8040
5040
1A00
ENDCHAR
STARTCHAR otilde
ENCODING 245
SWIDTH 309 0
DWIDTH 7 0
BBX 6 16 1 0
BITMAP
2440
4640
0000
0000
1A00
5040
8040
8050
8010
8010
8010
8010
8050
8040
5040
1A00
ENDCHAR
STARTCHAR odieresis
ENCODING 246
SWIDTH 309 0
DWIDTH 7 0
BBX 6 16 1 0
BITMAP
1100
2100
1100
0000
1A00
5040
8040
8050
8010
8010
8010
8010
8050
8040
5040
1A00
ENDCHAR
STARTCHAR divide
ENCODING 247
SWIDTH 577 0
DWIDTH 14 0
BBX 12 12 1 0
BITMAP
001000
001400
000000
000000
000000
000000
6AAAA9
000000
000000
000000
001400
001000
ENDCHAR
STARTCHAR oslash
ENCODING 248
SWIDTH 309 0
DWIDTH 7 0
BBX 6 12 1 0
BITMAP
1A50
5080
80C0
8150
8250
8510
8810
8410
9050
A040
5040
5A00
ENDCHAR
STARTCHAR ugrave
ENCODING 249
SWIDTH 307 0
DWIDTH 7 0
BBX 5 16 1 0
BITMAP
1000
1400
0400
0000
4040
8080
8080
8080
8080
8080
8080
8080
8080
4080
8080
2940
ENDCHAR
STARTCHAR uacute
ENCODING 250
SWIDTH 307 0
DWIDTH 7 0
BBX 5 16 1 0
BITMAP
0100
0200
0400
0000
4040
8080
8080
8080
8080
8080
8080
8080
8080
4080
8080
2940
ENDCHAR
STARTCHAR ucircumflex
ENCODING 251
SWIDTH 307 0
DWIDTH 7 0
BBX 5 16 1 0
BITMAP
0900
1600
1040
0000
4040
8080
8080
8080
8080
8080
8080
8080
8080
4080
8080
2940
ENDCHAR
STARTCHAR udieresis
ENCODING 252
SWIDTH 307 0
DWIDTH 7 0
BBX 5 16 1 0
BITMAP
1100
2100
1100
0000
4040
8080
8080
8080
8080
8080
8080
8080
8080
4080
8080
2940
ENDCHAR
STARTCHAR yacute
ENCODING 253
SWIDTH 285 0
DWIDTH 7 0
BBX 7 21 0 -5
BITMAP
0040
0140
0200
0000
4014
5010
1020
2010
1010
1440
0440
0840
0840
0540
0600
0200
0100
0100
0400
0800
6400
ENDCHAR
STARTCHAR thorn
ENCODING 254
SWIDTH 299 0
DWIDTH 7 0
BBX 7 22 0 -5
BITMAP
1000
2000
2000
2000
2000
2A80
6010
2020
2010
2010
2014
2014
2010
2010
2020
2410
2680
2000
2000
2000
2000
1000
ENDCHAR
STARTCHAR ydieresis
ENCODING 255
SWIDTH 285 0
DWIDTH 7 0
BBX 7 21 0 -5
BITMAP
0440
0480
0440
0000
4014
5010
1020
2010
1010
1440
0440
0840
0840
0540
0600
0200
0100
0100
0400
0800
6400
ENDCHAR
STARTCHAR dotlessi
ENCODING 305
SWIDTH 141 0
DWIDTH 3 0
BBX 1 12 1 0
BITMAP
40
80
80
80
80
80
80
80
80
80
80
40
ENDCHAR
STARTCHAR OE
ENCODING 338
SWIDTH 505 0
DWIDTH 12 0
BBX 10 17 1 0
BITMAP
06AAA0
142000
202000
402000
802000
802000
802000
802A90
402000
802000
802000
802000
802000
502000
202000
142000
06AAA0
ENDCHAR
STARTCHAR oe
ENCODING 339
SWIDTH 492 0
DWIDTH 12 0
BBX 10 12 1 0
BITMAP
1A0680
509410
80A020
806020
802AA0
801000
801000
802000
806000
805010
504420
1A0680
ENDCHAR
STARTCHAR Wcircumflex
ENCODING 372
SWIDTH 534 0
DWIDTH 13 0
BBX 11 20 1 0
BITMAP
002000
008800
000400
400004
400004
400004
800004
800004
806004
404414
404414
405414
506010
502010
106010
108410
114510
120210
280090
200060
ENDCHAR
STARTCHAR wcircumflex
ENCODING 373
SWIDTH 396 0
DWIDTH 10 0
BBX 9 16 0 0
BITMAP
009000
016000
010400
000000
500040
500080
100080
109040
206040
205040
209140
209140
209100
221100
150A00
140200
ENDCHAR
STARTCHAR Ycircumflex
ENCODING 374
SWIDTH 370 0
DWIDTH 9 0
BBX 9 20 0 0
BITMAP
008000
022000
001000
400040
500100
200200
140500
080800
041400
012000
021000
018000
008000
008000
008000
008000
008000
008000
008000
004000
ENDCHAR
STARTCHAR ycircumflex
ENCODING 375
SWIDTH 285 0
DWIDTH 7 0
BBX 7 21 0 -5
BITMAP
0200
0880
1450
0000
4014
5010
1020
2010
1010
1440
0440
0840
0840
0540
0600
0200
0100
0100
0400
0800
6400
ENDCHAR
STARTCHAR Ydieresis
ENCODING 376
SWIDTH 370 0
DWIDTH 9 0
BBX 9 21 0 0
BITMAP
011000
022000
011000
000000
400040
500100
200200
140500
080800
041400
012000
021000
018000
008000
008000
008000
008000
008000
008000
008000
004000
ENDCHAR
STARTCHAR uni0237
ENCODING 567
SWIDTH 141 0
DWIDTH 3 0
BBX 4 17 -2 -5
BITMAP
01
02
02
02
02
02
02
02
02
02
02
02
02
01
02
05
64
ENDCHAR
STARTCHAR circumflex
ENCODING 710
SWIDTH 280 0
DWIDTH 7 0
BBX 4 3 1 13
BITMAP
08
21
41
ENDCHAR
STARTCHAR ring
ENCODING 730
SWIDTH 238 0
DWIDTH 6 0
BBX 4 4 1 13
BITMAP
24
45
44
14
ENDCHAR
STARTCHAR tilde
ENCODING 732
SWIDTH 301 0
DWIDTH 7 0
BBX 5 2 1 14
BITMAP
2440
4640
ENDCHAR
STARTCHAR gravecomb
ENCODING 768
SWIDTH 0 0
DWIDTH 0 0
BBX 3 3 1 13
BITMAP
40
20
14
ENDCHAR
STARTCHAR acutecomb
ENCODING 769
SWIDTH 0 0
DWIDTH 0 0
BBX 3 3 1 13
BITMAP
14
20
50
ENDCHAR
STARTCHAR uni0302
ENCODING 770
SWIDTH 0 0
DWIDTH 0 0
BBX 4 3 1 13
BITMAP
08
21
41
ENDCHAR
STARTCHAR tildecomb
ENCODING 771
SWIDTH 0 0
DWIDTH 0 0
BBX 5 2 1 14
BITMAP
2440
4640
ENDCHAR
STARTCHAR uni0307
ENCODING 775
SWIDTH 0 0
DWIDTH 0 0
BBX 1 3 1 13
BITMAP
40
80
40
ENDCHAR
STARTCHAR uni0308
ENCODING 776
SWIDTH 0 0
DWIDTH 0 0
BBX 4 3 1 13
BITMAP
41
81
41
ENDCHAR
STARTCHAR uni030A
ENCODING 778
SWIDTH 0 0
DWIDTH 0 0
BBX 4 4 1 13
BITMAP
24
45
44
14
ENDCHAR
STARTCHAR uni0327
ENCODING 807
SWIDTH 0 0
DWIDTH 0 0
BBX 2 5 2 -4
BITMAP
40
90
10
10
90
ENDCHAR
STARTCHAR Wgrave
ENCODING 7808
SWIDTH 534 0
DWIDTH 13 0
BBX 11 21 1 0
BITMAP
008000
005000
001000
000000
400004
400004
400004
800004
800004
806004
404414
404414
405414
506010
502010
106010
108410
114510
120210
280090
200060
ENDCHAR
STARTCHAR wgrave
ENCODING 7809
SWIDTH 396 0
DWIDTH 10 0
BBX 9 16 0 0
BITMAP
010000
004000
004000
000000
500040
500080
100080
109040
206040
205040
209140
209140
209100
221100
150A00
140200
ENDCHAR
STARTCHAR Wacute
ENCODING 7810
SWIDTH 534 0
DWIDTH 13 0
BBX 11 21 1 0
BITMAP
000800
001400
001000
000000
400004
400004
400004
800004
800004
806004
404414
404414
405414
506010
502010
106010
108410
114510
120210
280090
200060
ENDCHAR
STARTCHAR wacute
ENCODING 7811
SWIDTH 396 0
DWIDTH 10 0
BBX 9 16 0 0
BITMAP
001000
002000
004000
000000
500040
500080
100080
109040
206040
205040
209140
209140
209100
221100
150A00
140200
ENDCHAR
STARTCHAR Wdieresis
ENCODING 7812
SWIDTH 534 0
DWIDTH 13 0
BBX 11 21 1 0
BITMAP
004400
008800
004400
000000
400004
400004
400004
800004
800004
806004
404414
404414
405414
506010
502010
106010
108410
114510
120210
280090
200060
ENDCHAR
STARTCHAR wdieresis
ENCODING 7813
SWIDTH 396 0
DWIDTH 10 0
BBX 9 16 0 0
BITMAP
011000
021400
011000
000000
500040
500080
100080
109040
206040
205040
209140
209140
209100
221100
150A00
140200
ENDCHAR
STARTCHAR uni1E9E
ENCODING 7838
SWIDTH 375 0
DWIDTH 9 0
BBX 7 17 1 0
BITMAP
1A80
2020
4020
8010
8010
8020
8660
88A0
8654
8004
8008
8008
8008
8008
8014
8020
5A80
ENDCHAR
STARTCHAR Ygrave
ENCODING 7922
SWIDTH 370 0
DWIDTH 9 0
BBX 9 21 0 0
BITMAP
020000
014000
004000
000000
400040
500100
200200
140500
080800
041400
012000
021000
018000
008000
008000
008000
008000
008000
008000
008000
004000
ENDCHAR
STARTCHAR ygrave
ENCODING 7923
SWIDTH 285 0
DWIDTH 7 0
BBX 7 21 0 -5
BITMAP
0400
0500
0200
0000
4014
5010
1020
2010
1010
1440
0440
0840
0840
0540
0600
0200
0100
0100
0400
0800
6400
ENDCHAR
STARTCHAR endash
ENCODING 8211
SWIDTH 425 0
DWIDTH 10 0
BBX 8 1 1 5
BITMAP
6AAA
ENDCHAR
STARTCHAR emdash
ENCODING 8212
SWIDTH 770 0
DWIDTH 18 0
BBX 17 1 1 5
BITMAP
6AAAAAAA40
ENDCHAR
STARTCHAR quoteleft
ENCODING 8216
SWIDTH 145 0
DWIDTH 3 0
BBX 2 5 1 12
BITMAP
50
80
80
80
40
ENDCHAR
STARTCHAR quoteright
ENCODING 8217
SWIDTH 145 0
DWIDTH 3 0
BBX 2 5 1 12
BITMAP
50
50
50
40
80
ENDCHAR
STARTCHAR quotesinglbase
ENCODING 8218
SWIDTH 145 0
DWIDTH 3 0
BBX 2 5 0 -2
BITMAP
10
10
10
20
50
ENDCHAR
STARTCHAR quotedblleft
ENCODING 8220
SWIDTH 219 0
DWIDTH 5 0
BBX 4 5 1 12
BITMAP
55
88
84
84
44
ENDCHAR
STARTCHAR quotedblright
ENCODING 8221
SWIDTH 219 0
DWIDTH 5 0
BBX 3 5 1 12
BITMAP
54
54
54
48
94
ENDCHAR
STARTCHAR quotedblbase
ENCODING 8222
SWIDTH 219 0
DWIDTH 5 0
BBX 4 5 0 -2
BITMAP
11
12
12
22
55
ENDCHAR
STARTCHAR bullet
ENCODING 8226
SWIDTH 355 0
DWIDTH 9 0
BBX 6 6 1 6
BITMAP
1F80
7FE0
BFF0
7FF0
3FE0
1F80
ENDCHAR
STARTCHAR ellipsis
ENCODING 8230
SWIDTH 651 0
DWIDTH 16 0
BBX 12 3 2 0
BITMAP
401001
401002
401001
ENDCHAR
STARTCHAR guilsinglleft
ENCODING 8249
SWIDTH 263 0
DWIDTH 6 0
BBX 4 10 1 2
BITMAP
01
02
08
20
80
80
20
14
05
01
ENDCHAR
STARTCHAR guilsinglright
ENCODING 8250
SWIDTH 263 0
DWIDTH 6 0
BBX 4 10 1 2
BITMAP
80
20
14
05
02
02
08
14
50
40
ENDCHAR
STARTCHAR fraction
ENCODING 8260
SWIDTH 152 0
DWIDTH 4 0
BBX 9 17 -3 0
BITMAP
000040
000040
000100
000100
000400
000400
001000
002000
004000
008000
010000
020000
050000
080000
140000
200000
500000
ENDCHAR
STARTCHAR uni2074
ENCODING 8308
SWIDTH 247 0
DWIDTH 6 0
BBX 4 8 1 9
BITMAP
04
20
10
44
88
A9
08
04
ENDCHAR
STARTCHAR Euro
ENCODING 8364
SWIDTH 391 0
DWIDTH 9 0
BBX 8 17 0 0
BITMAP
00AA
0200
0500
0800
0400
1400
1400
6A90
1000
6A90
1400
1400
0400
0800
0500
0200
00AA
ENDCHAR
STARTCHAR trademark
ENCODING 8482
SWIDTH 506 0
DWIDTH 12 0
BBX 11 9 0 8
BITMAP
7F8808
081A68
081588
081588
081488
081588
0815C8
081408
040004
ENDCHAR
STARTCHAR minus
ENCODING 8722
SWIDTH 557 0
DWIDTH 13 0
BBX 12 1 1 7
BITMAP
FFFFFD
ENDCHAR
STARTCHAR uni2215
ENCODING 8725
SWIDTH 259 0
DWIDTH 6 0
BBX 6 17 0 0
BITMAP
0010
0020
0050
0040
0080
0040
0100
0200
0100
0400
0800
0400
1000
2000
1000
4000
4000
ENDCHAR
STARTCHAR .notdef
ENCODING -1
SWIDTH 500 0
DWIDTH 12 0
BBX 10 22 1 -5
BITMAP
BFFFE0
A555A0
900060
900060
900060
900060
900060
900060
900060
900060
900060
900060
900060
900060
900060
900060
900060
900060
900060
900060
BFFFE0
155540
ENDCHAR
STARTCHAR NULL
ENCODING -1
SWIDTH 600 0
DWIDTH 14 0
BBX 1 1 0 0
BITMAP
00
ENDCHAR
STARTCHAR acutecomb.case
ENCODING -1
SWIDTH 0 0
DWIDTH 0 0
BBX 2 3 1 18
BITMAP
10
50
40
ENDCHAR
STARTCHAR uni0302.case
ENCODING -1
SWIDTH 0 0
DWIDTH 0 0
BBX 4 3 1 17
BITMAP
14
15
41
ENDCHAR
STARTCHAR uni0308.case
ENCODING -1
SWIDTH 0 0
DWIDTH 0 0
BBX 3 3 1 18
BITMAP
40
84
44
ENDCHAR
STARTCHAR uni0307.case
ENCODING -1
SWIDTH 0 0
DWIDTH 0 0
BBX 1 3 1 18
BITMAP
40
80
40
ENDCHAR
STARTCHAR gravecomb.case
ENCODING -1
SWIDTH 0 0
DWIDTH 0 0
BBX 2 2 1 19
BITMAP
50
20
ENDCHAR
STARTCHAR uni030A.case
ENCODING -1
SWIDTH 0 0
DWIDTH 0 0
BBX 3 3 1 18
BITMAP
24
44
24
ENDCHAR
STARTCHAR tildecomb.case
ENCODING -1
SWIDTH 0 0
DWIDTH 0 0
BBX 5 2 1 19
BITMAP
2440
4640
ENDCHAR
ENDFONT
